<svg xmlns="http://www.w3.org/2000/svg" viewBox="0 0 83 33.65"><defs><style>.cls-1{font-size:12.19px;font-family:Bungee-Regular, Bungee;letter-spacing:-0.02em;}.cls-1,.cls-3{fill:#fff;}.cls-2{letter-spacing:-0.03em;}</style></defs><g id="Capa_2" data-name="Capa 2"><g id="Capa_1-2" data-name="Capa 1"><text class="cls-1" transform="translate(27.44 10.48) scale(0.94 1)">METEORA<tspan class="cls-2"><tspan x="0" y="12">GAMES</tspan></tspan></text><path class="cls-3" d="M12.74,8.72H13Z"/><path class="cls-3" d="M17.8,7.49S14,3.42,10.58,2a10.24,10.24,0,0,0,.86,4.05C11.23,5.9,7.88,2.93,5.11,2.5A6.19,6.19,0,0,0,6.18,5.61,12.73,12.73,0,0,0,0,2.52,13.7,13.7,0,0,0,4,8.4,5.28,5.28,0,0,0,.94,7.87c1,2.9,4.53,5.93,4.53,5.93a8.67,8.67,0,0,0-3.92-.13C3.49,17,8,20.18,8,20.18a7.43,7.43,0,0,0,10.89-1.11A8.58,8.58,0,0,0,17.8,7.49ZM13.18,19.13a5.07,5.07,0,0,1-4.91-5.22c0-.11,0-.22,0-.33a2.11,2.11,0,0,1,0-.25,5.57,5.57,0,0,1,.57-1.8A1.71,1.71,0,0,1,9,11.3,2.46,2.46,0,0,1,9.17,11a5.33,5.33,0,0,1,3.7-2.32h-.13l.24,0h.26a5.09,5.09,0,0,1,4.85,5.23A5.06,5.06,0,0,1,13.18,19.13Z"/></g></g></svg>